<?xml version="1.0" ?><svg id="Line" style="enable-background:new 0 0 128 128;" version="1.1" viewBox="0 0 128 128" xml:space="preserve" xmlns="http://www.w3.org/2000/svg" xmlns:xlink="http://www.w3.org/1999/xlink"><g><path d="M23,35V17c0-0.553-0.448-1-1-1h-8c-0.552,0-1,0.447-1,1v18c0,0.553,0.448,1,1,1h8C22.552,36,23,35.553,23,35z M21,34h-6V18   h6V34z"/><path d="M40,25h8c0.552,0,1-0.447,1-1V6c0-0.553-0.448-1-1-1h-8c-0.552,0-1,0.447-1,1v18C39,24.553,39.448,25,40,25z M41,7h6v16h-6   V7z"/><path d="M27,25h8c0.552,0,1-0.447,1-1V6c0-0.553-0.448-1-1-1h-8c-0.552,0-1,0.447-1,1v18C26,24.553,26.448,25,27,25z M28,7h6v16h-6   V7z"/><path d="M66,25h8c0.552,0,1-0.447,1-1V6c0-0.553-0.448-1-1-1h-8c-0.552,0-1,0.447-1,1v18C65,24.553,65.448,25,66,25z M67,7h6v16h-6   V7z"/><path d="M53,25h8c0.552,0,1-0.447,1-1V6c0-0.553-0.448-1-1-1h-8c-0.552,0-1,0.447-1,1v18C52,24.553,52.448,25,53,25z M54,7h6v16h-6   V7z"/><path d="M79,25h8c0.552,0,1-0.447,1-1V6c0-0.553-0.448-1-1-1h-8c-0.552,0-1,0.447-1,1v18C78,24.553,78.448,25,79,25z M80,7h6v16h-6   V7z"/><path d="M117,61H96v-2c0-1.103-0.897-2-2-2h-1V33h1c1.103,0,2-0.897,2-2V6.938C96,3.663,93.336,1,90.062,1H16   c-0.351,0-0.677,0.185-0.857,0.485l-9,15C6.049,16.641,6,16.818,6,17v20c0,1.103,0.897,2,2,2h1v12H8c-1.103,0-2,0.897-2,2v68.062   c0,3.633,6.988,5.938,9.938,5.938H74h43c2.757,0,5-2.243,5-5V66C122,63.243,119.757,61,117,61z M120,66v53.885   c-0.094-0.011-0.181-0.022-0.286-0.035c-24.214-2.961-39.709-1.734-48.714-0.059v-6.377l2.121-2.121   c0.567-0.566,0.879-1.32,0.879-2.121V103c0-1.654-1.346-3-3-3v-5.624l6.752-7.718C77.912,86.477,78,86.242,78,86V66   c0-1.654,1.346-3,3-3h36C118.654,63,120,64.346,120,66z M84,61h-3c-2.757,0-5,2.243-5,5v19.624l-6.752,7.718   C69.088,93.523,69,93.758,69,94v6c0,1.103,0.897,2,2,2c0.551,0,1,0.448,1,1v6.172c0,0.263-0.107,0.521-0.293,0.707l-2.414,2.414   C69.105,112.48,69,112.734,69,113v3H22.664c-2.571,0-4.664-2.092-4.664-4.663V57.663C18,55.092,20.092,53,22.664,53h56.673   C81.908,53,84,55.092,84,57.663V61z M8,121.062V53h1c1.103,0,2-0.897,2-2V39c0-1.103-0.897-2-2-2H8V17.277L16.566,3h73.496   C92.233,3,94,4.767,94,6.938V31h-1c-1.103,0-2,0.897-2,2v24c0,1.103,0.897,2,2,2h1v2h-8v-3.337C86,53.989,83.011,51,79.336,51   H22.664C18.989,51,16,53.989,16,57.663v53.674c0,3.674,2.989,6.663,6.664,6.663H69v4c0,1.13,0.391,2.162,1.026,3H15.938   C13.314,125,8,122.834,8,121.062z M117,125H74c-1.654,0-3-1.346-3-3v-0.172c8.799-1.684,24.166-2.966,48.471,0.007   c0.206,0.025,0.376,0.046,0.529,0.064V122C120,123.654,118.654,125,117,125z"/><path d="M85,65h-4c-0.552,0-1,0.447-1,1v10c0,0.553,0.448,1,1,1h4c0.552,0,1-0.447,1-1V66C86,65.447,85.552,65,85,65z M84,75h-2v-8   h2V75z"/><path d="M93,65h-4c-0.552,0-1,0.447-1,1v10c0,0.553,0.448,1,1,1h4c0.552,0,1-0.447,1-1V66C94,65.447,93.552,65,93,65z M92,75h-2v-8   h2V75z"/><path d="M97,77h4c0.552,0,1-0.447,1-1V66c0-0.553-0.448-1-1-1h-4c-0.552,0-1,0.447-1,1v10C96,76.553,96.448,77,97,77z M98,67h2v8   h-2V67z"/><path d="M105,77h4c0.552,0,1-0.447,1-1V66c0-0.553-0.448-1-1-1h-4c-0.552,0-1,0.447-1,1v10C104,76.553,104.448,77,105,77z M106,67   h2v8h-2V67z"/><path d="M113,77h4c0.552,0,1-0.447,1-1V66c0-0.553-0.448-1-1-1h-4c-0.552,0-1,0.447-1,1v10C112,76.553,112.448,77,113,77z M114,67   h2v8h-2V67z"/></g></svg>